<?xml version="1.0" encoding="UTF-8"?>
<svg xmlns="http://www.w3.org/2000/svg" xmlns:xlink="http://www.w3.org/1999/xlink" width="16px" height="16px" viewBox="0 0 16 16" version="1.1">
<g id="surface1">
<path style=" stroke:none;fill-rule:nonzero;fill:rgb(0%,0%,0%);fill-opacity:1;" d="M 14.101562 8.144531 C 14.101562 11.683594 11.675781 14.199219 8.101562 14.199219 C 4.671875 14.199219 1.898438 11.429688 1.898438 8 C 1.898438 4.570312 4.671875 1.800781 8.101562 1.800781 C 9.769531 1.800781 11.175781 2.414062 12.257812 3.421875 L 10.570312 5.046875 C 8.363281 2.914062 4.257812 4.515625 4.257812 8 C 4.257812 10.164062 5.984375 11.914062 8.101562 11.914062 C 10.554688 11.914062 11.476562 10.15625 11.621094 9.242188 L 8.101562 9.242188 L 8.101562 7.109375 L 14.003906 7.109375 C 14.058594 7.425781 14.101562 7.734375 14.101562 8.144531 Z M 14.101562 8.144531 "/>
</g>
</svg>
