<?xml version="1.0" encoding="UTF-8"?>
<svg xmlns="http://www.w3.org/2000/svg" xmlns:xlink="http://www.w3.org/1999/xlink" width="16px" height="16px" viewBox="0 0 16 16" version="1.1">
<g id="surface1">
<path style=" stroke:none;fill-rule:nonzero;fill:rgb(0%,0%,0%);fill-opacity:1;" d="M 4.90625 12.800781 L 2.585938 12.800781 L 2.585938 5.324219 L 4.90625 5.324219 Z M 3.746094 4.300781 C 3.003906 4.300781 2.398438 3.6875 2.398438 2.945312 C 2.398438 2.585938 2.542969 2.246094 2.796875 1.996094 C 3.046875 1.742188 3.390625 1.601562 3.746094 1.601562 C 4.101562 1.601562 4.441406 1.742188 4.695312 1.996094 C 4.949219 2.246094 5.089844 2.589844 5.089844 2.945312 C 5.089844 3.6875 4.488281 4.300781 3.746094 4.300781 Z M 13.597656 12.800781 L 11.28125 12.800781 L 11.28125 9.160156 C 11.28125 8.292969 11.261719 7.179688 10.074219 7.179688 C 8.863281 7.179688 8.679688 8.121094 8.679688 9.097656 L 8.679688 12.800781 L 6.359375 12.800781 L 6.359375 5.324219 L 8.585938 5.324219 L 8.585938 6.34375 L 8.621094 6.34375 C 8.929688 5.753906 9.6875 5.136719 10.816406 5.136719 C 13.167969 5.136719 13.601562 6.683594 13.601562 8.691406 L 13.601562 12.800781 Z M 13.597656 12.800781 "/>
</g>
</svg>
