<?xml version="1.0" encoding="UTF-8"?>
<svg xmlns="http://www.w3.org/2000/svg" xmlns:xlink="http://www.w3.org/1999/xlink" width="16px" height="16px" viewBox="0 0 16 16" version="1.1">
<g id="surface1">
<path style=" stroke:none;fill-rule:nonzero;fill:rgb(0%,0%,0%);fill-opacity:1;" d="M 8.300781 1.761719 C 5.734375 1.761719 3.199219 3.472656 3.199219 6.238281 C 3.199219 8 4.191406 9 4.789062 9 C 5.039062 9 5.179688 8.308594 5.179688 8.113281 C 5.179688 7.882812 4.585938 7.386719 4.585938 6.421875 C 4.585938 4.410156 6.117188 2.984375 8.097656 2.984375 C 9.800781 2.984375 11.058594 3.953125 11.058594 5.730469 C 11.058594 7.058594 10.527344 9.546875 8.800781 9.546875 C 8.179688 9.546875 7.648438 9.097656 7.648438 8.453125 C 7.648438 7.507812 8.308594 6.59375 8.308594 5.617188 C 8.308594 3.960938 5.960938 4.261719 5.960938 6.261719 C 5.960938 6.683594 6.011719 7.148438 6.199219 7.53125 C 5.855469 9.015625 5.148438 11.226562 5.148438 12.757812 C 5.148438 13.230469 5.21875 13.695312 5.261719 14.167969 C 5.347656 14.261719 5.304688 14.253906 5.433594 14.203125 C 6.695312 12.480469 6.648438 12.140625 7.21875 9.886719 C 7.527344 10.46875 8.324219 10.785156 8.953125 10.785156 C 11.609375 10.785156 12.800781 8.199219 12.800781 5.863281 C 12.800781 3.382812 10.65625 1.761719 8.300781 1.761719 Z M 8.300781 1.761719 "/>
</g>
</svg>
