<?xml version="1.0" encoding="UTF-8"?>
<svg xmlns="http://www.w3.org/2000/svg" xmlns:xlink="http://www.w3.org/1999/xlink" width="16px" height="16px" viewBox="0 0 16 16" version="1.1">
<g id="surface1">
<path style=" stroke:none;fill-rule:nonzero;fill:rgb(0%,0%,0%);fill-opacity:1;" d="M 13.085938 5.390625 C 13.09375 5.503906 13.09375 5.621094 13.09375 5.734375 C 13.09375 9.199219 10.453125 13.199219 5.628906 13.199219 C 4.140625 13.199219 2.761719 12.765625 1.601562 12.019531 C 1.808594 12.046875 2.015625 12.050781 2.234375 12.050781 C 3.460938 12.050781 4.585938 11.636719 5.488281 10.933594 C 4.335938 10.90625 3.371094 10.152344 3.039062 9.113281 C 3.199219 9.136719 3.363281 9.152344 3.53125 9.152344 C 3.765625 9.152344 4.003906 9.121094 4.222656 9.0625 C 3.019531 8.820312 2.121094 7.761719 2.121094 6.488281 L 2.121094 6.453125 C 2.46875 6.648438 2.875 6.773438 3.304688 6.789062 C 2.597656 6.316406 2.136719 5.511719 2.136719 4.601562 C 2.136719 4.113281 2.265625 3.667969 2.492188 3.277344 C 3.785156 4.871094 5.726562 5.910156 7.902344 6.023438 C 7.863281 5.828125 7.835938 5.625 7.835938 5.421875 C 7.835938 3.976562 9.007812 2.800781 10.460938 2.800781 C 11.214844 2.800781 11.898438 3.117188 12.378906 3.628906 C 12.96875 3.515625 13.539062 3.296875 14.042969 2.996094 C 13.847656 3.605469 13.433594 4.113281 12.890625 4.441406 C 13.417969 4.382812 13.929688 4.238281 14.398438 4.035156 C 14.042969 4.554688 13.59375 5.015625 13.085938 5.390625 Z M 13.085938 5.390625 "/>
</g>
</svg>
